<?xml version="1.0" encoding="UTF-8"?>
<svg viewBox="0 0 744.09448 1052.3622" xmlns="http://www.w3.org/2000/svg">
 <g transform="matrix(.9086 0 0 .9086 -71.062 31.979)" fill="#804d00">
  <path d="m280.56 108.97c-99.083 0-179.4 59.202-179.4 132.24s80.321 132.24 179.4 132.24c7.8243 0 15.537-0.38448 23.097-1.1006l68.574 75.665 8.3559-97.024c47.873-23.749 79.377-64.048 79.377-109.78 0-73.041-80.321-132.24-179.4-132.24z" fill="#696969"/>
  <path d="m587.66 61.439c99.439 0 180.05 59.202 180.05 132.24s-80.609 132.24-180.05 132.24c-7.8523 0-15.593-0.38448-23.18-1.1006l-96.692 81.195 19.486-102.55c-48.045-23.749-79.662-64.048-79.662-109.78 0-73.041 80.609-132.24 180.05-132.24z" fill="#696969"/>
  <path d="m5.0199 70.546c-99.948 0-180.97 59.202-180.97 132.24s81.022 132.24 180.97 132.24c7.8925 0 15.673-0.38448 23.298-1.1006l132.39 75.665-54.784-97.024c48.291-23.749 80.07-64.048 80.07-109.78 0-73.041-81.022-132.24-180.97-132.24z" fill="#696969"/>
  <path d="m854.92 124.11c-93.331 0-168.99 56.305-168.99 125.77s75.658 125.77 168.99 125.77c7.37 0 23.851-5.8951 30.972-6.5761l114.41 77.493-51.158-92.277c45.094-22.587 74.769-60.914 74.769-104.41 0-69.467-75.658-125.77-168.99-125.77z" fill="#696969"/>
  <path d="m286.09 99.752c-99.083 0-179.4 59.202-179.4 132.24s80.321 132.24 179.4 132.24c7.8243 0 15.537-0.38448 23.097-1.1006l68.574 75.665 8.3559-97.024c47.873-23.749 79.377-64.048 79.377-109.78 0-73.041-80.321-132.24-179.4-132.24z" fill="#5f9ea0"/>
  <path d="m593.19 52.223c99.439 0 180.05 59.202 180.05 132.24s-80.609 132.24-180.05 132.24c-7.8523 0-15.593-0.38448-23.18-1.1006l-96.692 81.195 19.486-102.55c-48.045-23.749-79.662-64.048-79.662-109.78 0-73.041 80.609-132.24 180.05-132.24z" fill="#add8e6"/>
  <path d="m10.549 61.33c-99.948 0-180.97 59.202-180.97 132.24s81.022 132.24 180.97 132.24c7.8925 0 15.673-0.38448 23.298-1.1006l132.39 75.665-54.784-97.024c48.291-23.749 80.07-64.048 80.07-109.78 0-73.041-81.022-132.24-180.97-132.24z" fill="#f08080"/>
  <path d="m860.45 114.89c-93.331 0-168.99 56.305-168.99 125.77s75.658 125.77 168.99 125.77c7.37 0 23.851-5.8951 30.972-6.5761l114.41 77.493-51.158-92.277c45.094-22.587 74.769-60.914 74.769-104.41 0-69.467-75.658-125.77-168.99-125.77z" fill="#708090"/>
  <g transform="translate(3.6863)" fill="#fff" font-family="MA Sexy" font-size="240.29" letter-spacing="0" word-spacing="0">
   <path d="m9.7125 196.3c18.069 1.3298 31.483 5.8275 40.244 13.493s13.141 17.248 13.141 28.746c-1.4e-4 10.012-2.9725 18.655-8.9171 25.93-5.9448 7.1962-13.571 11.929-22.879 14.197-9.23 2.1902-21.628 3.2852-37.194 3.2852h-62.419v-5.3972h6.1012c6.8051 0 11.498-0.86042 14.08-2.5813 2.6594-1.7208 4.3412-4.3803 5.0452-7.9784 0.70395-3.6763 1.0559-12.163 1.056-25.461v-77.438c-3e-5 -12.906-0.39113-21.237-1.1733-24.991-0.70401-3.7544-2.2684-6.3357-4.6932-7.7438-2.3466-1.4078-7.5482-2.1118-15.605-2.1119h-3.0506v-5.3972l26.165-0.70398 29.802-0.93864c43.49 1.6e-4 65.235 12.515 65.235 37.546-1.2e-4 10.325-3.7547 18.616-11.264 24.874-7.431 6.2577-18.656 10.482-33.674 12.672m-28.746-2.2293c1.9554 0.0783 3.5981 0.11742 4.9278 0.11733 16.895 9e-5 28.433-2.6594 34.612-7.9784s9.269-13.923 9.269-25.813c-1e-4 -8.2912-1.2125-14.705-3.6372-19.242s-6.0621-8.0174-10.912-10.442c-4.8497-2.5029-13.141-3.7544-24.874-3.7546-3.0506 1.6e-4 -6.1794 0.11749-9.3864 0.35199v66.761m0 5.7492v35.434c-5e-5 15.096 0.27372 24.678 0.82131 28.746s1.9946 7.1571 4.3412 9.269c2.4248 2.112 7.157 3.1679 14.197 3.1679 12.515 0 21.901-3.207 28.159-9.621s9.3863-16.035 9.3864-28.863c-1.1e-4 -13.141-3.5591-22.801-10.677-28.98-7.0399-6.2575-19.477-9.3863-37.311-9.3864-2.816 9e-5 -5.7883 0.0783-8.9171 0.23466"/>
   <path d="m357.11 270.15-1.1733 46.815h-135.16v-5.3972h4.6932c6.8051 0 11.498-0.86042 14.08-2.5813 2.6594-1.7208 4.3412-4.3803 5.0452-7.9784 0.78217-3.6763 1.1733-12.163 1.1733-25.461v-78.024c-4e-5 -12.671-0.39113-20.845-1.1733-24.522-0.70401-3.6762-2.2684-6.2183-4.6932-7.6264-2.3466-1.4078-7.5482-2.1118-15.605-2.1119h-3.5199v-5.3972h76.382v5.3972h-7.0398c-7.822 1.5e-4 -12.945 0.66502-15.37 1.9946-2.4249 1.2517-4.0675 3.6374-4.9278 7.1571-0.78225 3.52-1.1734 11.89-1.1733 25.109v83.304c-5e-5 11.498 0.31283 18.695 0.93864 21.589s2.3074 5.1625 5.0452 6.8051c2.8158 1.5644 8.7997 2.3466 17.951 2.3466h12.085c9.7774 0 17.013-0.86042 21.706-2.5813 4.7713-1.7208 9.2689-5.4754 13.493-11.264 4.302-5.7882 8.213-14.979 11.733-27.572h5.5145"/>
   <path d="m504.01 188.44c-1e-5 -24.561 8.2131-44.272 24.639-59.134s36.92-22.292 61.481-22.293c24.796 1.6e-4 45.485 7.3528 62.067 22.058 16.661 14.705 24.991 34.769 24.991 60.19-1.8e-4 24.639-7.9786 44.585-23.935 59.838-15.879 15.253-36.803 22.879-62.771 22.879-25.265 0-45.993-7.6264-62.185-22.879s-24.287-35.473-24.287-60.659m26.869 0.82131c-3e-5 25.578 5.0842 44.781 15.253 57.609 10.247 12.828 25.578 19.242 45.993 19.242 17.912 0 32.07-6.414 42.473-19.242s15.605-31.953 15.605-57.374c-1.6e-4 -24.717-5.1236-43.647-15.37-56.788-10.247-13.219-25.109-19.829-44.585-19.829-19.164 1.6e-4 -33.869 6.4533-44.116 19.359-10.169 12.828-15.253 31.836-15.253 57.022"/>
   <path d="m872.04 254.56h68.638v5.6318c-7.5875 6e-5 -12.75 0.78226-15.488 2.3466-2.6596 1.4862-4.4196 4.0284-5.2798 7.6264-0.86058 3.5199-1.2908 12.124-1.2906 25.813v16.895c-1.8774-0.31287-3.5592-0.46931-5.0452-0.46932-6.0231 1e-5 -13.923 1.8382-23.701 5.5145-13.297 5.0061-25.617 7.5091-36.959 7.5091-22.762 0-41.691-7.47-56.788-22.41-15.096-15.018-22.645-34.026-22.645-57.022-2e-5 -22.762 7.1962-42.708 21.589-59.838s33.947-25.695 58.665-25.695c21.276 1.6e-4 38.875 7.8221 52.798 23.466 2.5811-5.4752 4.2237-11.381 4.9278-17.717h5.6318v53.15h-5.6318c-2.2685-16.348-8.487-29.293-18.655-38.836-10.09-9.5427-22.371-14.314-36.842-14.314-14.94 1.6e-4 -27.964 5.5538-39.071 16.661s-16.661 30.819-16.661 59.134c-4e-5 28.237 5.358 48.262 16.074 60.073 10.716 11.733 24.013 17.599 39.892 17.599 8.1348 0 15.527-1.6426 22.175-4.9278 6.6486-3.3634 11.185-7.4309 13.61-12.202s3.6371-10.794 3.6372-18.069c-1.4e-4 -8.5259-0.58679-14.197-1.76-17.013-1.0952-2.8941-2.816-4.8105-5.1625-5.7492-2.3467-1.0168-6.6488-1.5252-12.906-1.5253h-3.7546v-5.6318"/>
  </g>
 </g>
</svg>
